<?xml version="1.0" encoding="UTF-8" standalone="no"?>
<!-- Created with Inkscape (http://www.inkscape.org/) -->

<svg
   xmlns:dc="http://purl.org/dc/elements/1.1/"
   xmlns:cc="http://creativecommons.org/ns#"
   xmlns:rdf="http://www.w3.org/1999/02/22-rdf-syntax-ns#"
   xmlns:svg="http://www.w3.org/2000/svg"
   xmlns="http://www.w3.org/2000/svg"
   xmlns:sodipodi="http://sodipodi.sourceforge.net/DTD/sodipodi-0.dtd"
   xmlns:inkscape="http://www.inkscape.org/namespaces/inkscape"
   version="1.1"
   width="1286.2205"
   height="1124.2913"
   id="svg2"
   inkscape:version="0.48.4 r9939"
   sodipodi:docname="Westminster_London_UK_labelled_ward_map_2002.svg">
  <metadata
     id="metadata49">
    <rdf:RDF>
      <cc:Work
         rdf:about="">
        <dc:format>image/svg+xml</dc:format>
        <dc:type
           rdf:resource="http://purl.org/dc/dcmitype/StillImage" />
      </cc:Work>
    </rdf:RDF>
  </metadata>
  <sodipodi:namedview
     pagecolor="#ffffff"
     bordercolor="#666666"
     borderopacity="1"
     objecttolerance="10"
     gridtolerance="10"
     guidetolerance="10"
     inkscape:pageopacity="0"
     inkscape:pageshadow="2"
     inkscape:window-width="1366"
     inkscape:window-height="706"
     id="namedview47"
     showgrid="false"
     borderlayer="true"
     inkscape:zoom="1.3056703"
     inkscape:cx="993.1962"
     inkscape:cy="376.7213"
     inkscape:window-x="-8"
     inkscape:window-y="-8"
     inkscape:window-maximized="1"
     inkscape:current-layer="svg2"
     units="cm" />
  <defs
     id="defs15">
    <clipPath
       id="clipPath2828">
      <rect
         width="1425"
         height="1140"
         x="0"
         y="0"
         id="rect2830" />
    </clipPath>
  </defs>
  <rect
     style="fill:#ffffff;fill-opacity:1;stroke:#000000;stroke-width:0.91053951;stroke-linecap:round;stroke-linejoin:round;stroke-miterlimit:4;stroke-opacity:1;stroke-dasharray:none"
     id="rect4006"
     width="524.01813"
     height="91.424118"
     x="42.244549"
     y="866.46179" />
  <g
     transform="matrix(1,0,0,1.6,0,-141.70733)"
     id="Wards"
     style="fill:#ffd5d5;fill-opacity:1;stroke:#000000;stroke-width:0.78994691;stroke-linecap:round;stroke-linejoin:round;stroke-miterlimit:4;stroke-opacity:1;stroke-dasharray:none">
    <path
       d="m 622.36828,160.77131 -5.52043,2.15961 -1.44011,0.47992 -2.88022,1.43974 -3.12024,1.19979 -14.1611,6.47884 -9.60075,4.55919 -6.00046,-5.0391 -3.8403,-3.3594 -34.08265,15.59721 -4.80037,2.15962 -5.04039,2.39957 -3.12024,1.6797 -0.96008,0.47991 -4.08031,2.39958 -3.60028,2.87948 -3.36026,2.39957 -2.40019,2.15962 -3.36026,3.3594 -4.32033,5.51901 -2.40019,2.15962 -2.16017,1.6797 -2.40018,1.43974 -9.60075,4.07927 -33.84262,16.31709 -20.40159,8.87842 -4.32033,-3.11944 -1.68013,-1.19979 -1.92015,-1.6797 -2.16017,-1.91966 -8.88069,-7.19871 -24.72192,-20.87628 -7.20055,-5.99893 -14.40112,-12.47777 -10.3208,-8.87842 -6.96054,-5.99893 2.16017,-0.71987 6.72052,-3.3594 0.96007,-0.71987 0.72006,-0.47991 0.96007,-0.47992 25.44198,-23.99572 1.20009,-1.19978 7.92061,-7.19872 0.48004,-0.71987 2.16017,-1.19979 2.6402,-1.43974 1.68013,-0.71987 2.40019,-1.43974 12.72099,-4.31923 12.961,-4.31923 13.20103,-3.83932 2.6402,-0.71987 1.68013,-0.47991 3.36026,-0.47992 4.80037,-0.71987 2.64021,-0.47991 0.48004,-0.23996 3.12024,-0.23996 2.16017,0 2.16016,0 0.48004,0 0.48004,0 28.3222,1.91966 21.12163,1.6797 -2.6402,13.4376 0.24002,0.95983 0.24002,0.47992 0.24001,0.47991 0.72006,0.71987 6.00047,4.79915 17.28134,-8.63846 12.24095,6.7188 15.36119,-9.11837 1.20009,0.47991 1.92015,0.71987 2.40019,0.95983 6.72052,3.3594 2.6402,1.43974 1.92015,0.95983 16.56129,11.27799 18.24141,12.71773 z"
       id="Abbey Road"
       style="fill:#ffd5d5;fill-opacity:1;fill-rule:evenodd;stroke:#000000;stroke-width:0.78994691;stroke-linecap:round;stroke-linejoin:round;stroke-miterlimit:4;stroke-opacity:1;stroke-dasharray:none"
       inkscape:connector-curvature="0" />
    <path
       d="m 427.9532,366.89453 -22.56175,6.23888 -18.24142,4.79915 -19.68152,5.27906 -8.40065,2.63952 -2.88023,0.95983 -39.60307,4.55919 2.16017,7.43867 5.52043,16.55705 0.24001,2.39957 -21.84169,2.63953 -0.24002,0 -11.04086,0.95983 -1.44011,0 -7.92061,-26.15534 -7.92062,0.95983 -38.88301,4.55919 -7.6806,-25.1955 -0.48004,-0.71988 0.48004,-0.23995 9.84076,-1.19979 12.24095,-1.91966 6.48051,-0.95983 3.60028,-0.47991 -9.84077,-16.797 13.92108,-2.87949 15.12118,-3.3594 2.6402,0.23996 0.48004,-0.47992 1.20009,-1.19978 0.48004,-1.19979 0,-5.75897 -3.8403,-4.55919 0.96008,-0.95983 11.52089,3.11945 7.92061,1.91966 9.84077,2.15961 8.40065,1.43974 7.68059,0.95983 7.6806,0.47992 6.00047,0.47991 7.68059,0 3.12024,0 2.64021,0.23996 31.20242,0.23996 10.80084,0.23995 32.64253,22.55598 z"
       id="Bayswater"
       style="fill:#ffd5d5;fill-opacity:1;fill-rule:evenodd;stroke:#000000;stroke-width:0.78994691;stroke-linecap:round;stroke-linejoin:round;stroke-miterlimit:4;stroke-opacity:1;stroke-dasharray:none"
       inkscape:connector-curvature="0" />
    <path
       d="m 633.40914,280.50994 4.80037,-0.95983 5.52043,-0.95982 19.92154,-3.83932 9.84077,5.0391 9.1207,5.0391 7.92062,4.07927 5.28041,2.39958 10.3208,23.5158 6.72052,13.91752 -24.4819,4.31922 7.44058,16.31709 6.96054,15.59722 7.68059,15.83717 6.48051,13.43761 7.20056,15.83717 -2.16017,0.23996 -17.28134,2.15961 -7.6806,0.95983 -0.24002,0 -20.40158,2.63953 -2.6402,-1.91966 -4.32034,-3.11944 -14.88115,-10.31816 -3.8403,-2.15962 -2.16017,-1.43974 -2.6402,-1.6797 -3.8403,-2.63953 -11.28088,-7.67863 -26.64206,-17.51687 -14.88116,-10.55812 -25.92201,-17.27691 3.12024,-0.23996 5.28041,-0.47992 3.36026,-0.47991 2.40019,-0.23996 5.04039,-1.19978 20.6416,-4.79915 7.20056,-1.19978 5.28041,-0.47992 3.8403,-0.47991 4.08031,-0.23996 5.76045,-1.19978 -6.24048,-11.27799 -2.88023,-4.07927 -2.40018,-2.63953 -2.64021,-2.63953 -3.8403,-2.39957 -7.92061,-5.27906 -8.40065,-6.95876 12.00093,-6.47884 7.92061,-2.63953 5.52043,-1.43975 7.6806,-1.43974 5.28041,-0.95983 z"
       id="Bryanston and Dorset Square"
       style="fill:#ffd5d5;fill-opacity:1;fill-rule:evenodd;stroke:#000000;stroke-width:0.78994691;stroke-linecap:round;stroke-linejoin:round;stroke-miterlimit:4;stroke-opacity:1;stroke-dasharray:none"
       inkscape:connector-curvature="0" />
    <path
       d="m 633.40914,280.50994 -5.28041,0.95983 -7.6806,1.43974 -5.52043,1.43975 -7.92061,2.63953 -12.00093,6.47884 8.40065,6.95876 7.92061,5.27906 3.8403,2.39957 2.64021,2.63953 2.40018,2.63953 2.88023,4.07927 6.24048,11.27799 -5.76045,1.19978 -4.08031,0.23996 -3.8403,0.47991 -5.28041,0.47992 -7.20056,1.19978 -20.6416,4.79915 -5.04039,1.19978 -2.40019,0.23996 -3.36026,0.47991 -5.28041,0.47992 -3.12024,0.23996 -7.44058,-5.51902 -7.20056,-5.99893 -1.68013,-1.43974 -0.72005,-0.71987 -2.16017,-1.43975 -1.44011,-0.71987 -2.64021,-2.15961 -6.72052,-4.31923 -20.16156,-13.67756 -17.76138,-12.47777 -7.44058,-4.55919 25.92202,-12.71773 2.16016,-0.95983 3.60028,-1.91966 2.16017,-0.71987 1.44011,-0.47991 2.40019,-0.71987 24.00186,-3.59936 1.44011,-0.23996 0.72006,0 1.68013,0.23996 1.20009,0 1.68013,0 3.36026,-0.47992 3.60028,-0.71987 3.8403,-0.95983 1.44011,-0.47991 5.76045,-1.91966 3.8403,-1.91966 4.32033,-2.87948 3.12024,-1.91966 3.8403,-3.11944 1.20009,-1.43975 1.92015,-1.6797 3.12024,-3.11944 17.28134,13.91752 13.68107,11.7579 1.44011,1.6797 3.8403,4.79914 1.44011,3.3594 z"
       id="Church Street"
       style="fill:#ffd5d5;fill-opacity:1;fill-rule:evenodd;stroke:#000000;stroke-width:0.78994691;stroke-linecap:round;stroke-linejoin:round;stroke-miterlimit:4;stroke-opacity:1;stroke-dasharray:none"
       inkscape:connector-curvature="0" />
    <path
       d="m 793.26154,739.54803 -1.68013,-10.31816 -0.96008,-4.79915 -0.48003,-0.95982 -0.72006,-1.19979 -1.92015,-1.6797 -12.00093,-7.19872 -3.36026,-1.91965 -19.92155,-12.71773 -16.32126,-9.83825 -10.80084,-6.23888 7.6806,-5.03911 -2.88023,-4.55918 -1.20009,-2.63953 -0.96007,-2.39957 -0.72006,-1.6797 10.08078,-1.6797 16.8013,-11.7579 5.76045,-4.07928 12.24095,6.7188 9.12071,-8.3985 6.72052,-6.7188 5.28041,2.15962 15.84123,4.79914 4.08032,1.19979 2.40018,0.47991 -6.72052,7.67863 -5.28041,4.55919 -4.56035,3.83931 -5.04039,4.31923 11.76091,5.51902 5.28041,2.39957 2.40018,0.47991 1.2001,0 0.48003,1.6797 1.2001,0.95983 2.16016,1.19979 5.28041,2.63953 3.12025,2.39957 3.36026,1.6797 26.64206,12.47777 10.08079,5.27906 24.24188,-3.11944 9.1207,-1.19979 14.1611,-1.91966 7.44058,-0.95983 12.72099,32.87414 -8.64067,1.43974 0,3.3594 0.24002,11.03803 -2.16017,0 -2.88023,0.23996 -4.32033,0 -0.48004,0 -12.48097,-0.23996 -3.12024,-0.23996 -1.92015,-0.23995 -2.40018,-0.23996 -3.60028,-0.71987 -7.20056,-1.19979 -9.60075,-1.43974 -4.32033,-0.95983 -4.80037,-0.95983 -1.2001,0 -7.92061,-0.47991 -1.20009,-0.23996 -3.60028,-0.47991 -2.40019,-0.71988 -1.44011,-0.23995 -2.88023,-0.23996 -11.28087,-0.47991 -12.24095,-0.23996 -5.52043,0.23996 -12.48097,0.23995 -6.00046,0.23996 -5.28041,0.23996 z"
       id="Churchill"
       style="fill:#ffd5d5;fill-opacity:1;fill-rule:evenodd;stroke:#000000;stroke-width:0.78994691;stroke-linecap:round;stroke-linejoin:round;stroke-miterlimit:4;stroke-opacity:1;stroke-dasharray:none"
       inkscape:connector-curvature="0" />
    <path
       d="m 191.53486,193.40549 0.96007,-0.23996 1.68013,0.47991 2.64021,0.95983 3.60028,1.19979 2.88022,0.95983 1.92015,0.23995 1.92015,0 1.68013,1.91966 0.72006,1.19979 0.48003,0.71987 0.48004,0.71987 1.20009,1.43974 2.16017,1.43975 1.20009,0.47991 0.96008,0.71987 2.6402,1.19979 2.64021,0.95983 6.72052,2.87948 3.36026,1.43975 1.68013,0.95983 0.96007,0.71987 1.68013,0.95983 1.68013,0.71987 1.92015,0.95983 0.96008,0.71987 0.96007,0.47991 0.96008,0.95983 3.36026,2.39957 0.96007,0.71987 2.40019,2.87949 0.24002,0.47991 0.48003,1.6797 0.24002,3.59936 -0.96007,5.0391 0,0.71987 0.48004,0.95983 0,1.91966 -0.24002,0.95983 -0.24002,0.47991 -0.72006,1.19979 1.44011,2.87949 1.68013,5.27905 3.36027,0.47992 2.88022,-0.71987 0.72005,-0.23996 0.48004,0 1.2001,0 1.20009,0.23996 0.96007,0.71987 0,1.43974 3.12024,0.71987 -0.48003,0.71987 31.92247,11.51795 6.24049,2.63953 3.8403,1.6797 16.32126,7.91858 -4.80037,2.63953 -5.04039,2.39958 -13.92108,6.23888 -2.16017,1.91966 -17.28134,14.39743 -1.68013,-0.23996 -19.92155,-3.11944 -27.60214,-4.31923 -5.28041,-0.71987 -1.92014,-0.23996 -2.16017,-0.23996 -1.92015,-0.47991 -1.44011,-0.47991 -2.64021,-0.95983 -5.76044,-1.91966 -2.16017,-1.19979 -0.96008,5.75898 -0.24002,1.91965 -0.24001,1.43975 -0.24002,0.95983 0.48003,0.95982 1.2001,2.15962 0.24002,0.71987 0.72005,1.19979 0.48004,2.39957 -0.48004,0 -0.48004,0 -10.80083,-3.11945 -1.2001,-0.47991 -1.20009,-0.23996 -2.40019,-0.71987 -6.24048,-1.91966 -3.60028,-1.6797 -2.16017,-1.6797 -3.36026,-2.63953 -1.92015,-2.39957 -5.76044,-7.43867 -1.44011,-2.39957 -3.60028,-4.07927 -2.16017,-2.87949 -2.40019,-2.15961 -3.12024,-2.39958 -3.8403,-1.43974 -2.40018,-0.47991 -2.88023,-0.71987 -3.8403,-0.71988 0.24002,-0.23995 0.24002,-1.19979 0.24002,-0.71987 7.6806,0.71987 6.00046,0.47991 2.16017,0.47992 1.92015,0.23996 2.16017,0.47991 2.88022,0.95983 2.16017,0.95983 1.68013,0.71987 1.20009,0.95983 2.40019,1.43974 2.88022,1.6797 3.12024,1.6797 0.72006,-4.31923 1.68013,-8.87841 0.96007,-6.23889 0.96008,-4.31923 0.72005,-4.07927 0.96008,-5.75897 0.72005,-3.83932 -0.48003,-2.15961 3.12024,0.47991 20.88162,4.31923 -2.16017,-8.63846 -1.92015,-5.75897 -1.68013,-5.51901 -2.16017,-5.03911 -2.88022,-5.99892 -2.88022,-5.27906 -2.64021,-5.27906 -2.88022,-7.43867 z"
       id="Harrow Road"
       style="fill:#ffd5d5;fill-opacity:1;fill-rule:evenodd;stroke:#000000;stroke-width:0.78994691;stroke-linecap:round;stroke-linejoin:round;stroke-miterlimit:4;stroke-opacity:1;stroke-dasharray:none"
       inkscape:connector-curvature="0" />
    <path
       d="m 497.07856,434.32249 1.20009,-7.43867 -4.08031,-0.47991 -9.60075,-6.23889 -30.9624,-21.8361 -23.2818,-16.31709 10.80083,-5.99893 -13.20102,-9.11837 -32.64253,-22.55598 11.28087,-0.47991 12.48097,-1.91966 24.24188,-3.3594 3.12024,-0.23996 6.00047,-0.23995 6.24048,-0.23996 64.80503,1.43974 32.16249,0.23996 4.08032,0 1.20009,0.23996 1.44012,0 0.96007,0 25.92201,17.27691 14.88116,10.55812 26.64206,17.51687 11.28088,7.67863 3.8403,2.63953 2.6402,1.6797 2.16017,1.43974 3.8403,2.15962 14.88115,10.31816 4.32034,3.11944 2.6402,1.91966 -3.12024,0.23996 -25.44198,2.15961 -11.52089,1.19979 -6.24048,0.95983 -7.92062,0.95982 -49.44383,4.79915 -34.32267,3.11944 -17.52136,1.6797 -6.4805,0.71987 -17.28134,2.39957 z"
       id="Hyde Park"
       style="fill:#ffd5d5;fill-opacity:1;fill-rule:evenodd;stroke:#000000;stroke-width:0.78994691;stroke-linecap:round;stroke-linejoin:round;stroke-miterlimit:4;stroke-opacity:1;stroke-dasharray:none"
       inkscape:connector-curvature="0" />
    <path
       d="m 833.34465,596.29359 0.72005,1.19979 -0.24001,1.19978 -12.48097,12.23782 -10.3208,10.55811 -3.60028,3.59936 -19.68153,15.35726 -6.72052,6.7188 -9.12071,8.3985 -12.24095,-6.7188 -5.76045,4.07928 -16.8013,11.7579 -10.08078,1.6797 -1.20009,-4.55919 11.28087,-5.75897 -13.20102,-14.15748 -0.24002,-0.23995 11.28087,-7.19872 -11.28087,-7.19871 0.72005,-1.43975 1.2001,-1.19978 0.72005,-0.47992 1.68013,-1.19978 3.36026,-2.15962 -2.40018,-2.87948 -0.96008,-1.91966 -0.48003,-1.43974 -4.32034,-21.35619 -0.48004,-2.87949 -12.961,-8.87841 -7.20056,-5.27906 -6.24048,-23.27585 -0.72006,-1.43974 -0.24002,-0.47992 -0.24002,-0.95982 0,-0.95983 0.48004,-0.95983 0.24002,-8.3985 -1.44011,0.23995 -6.48051,1.43975 -16.08124,3.83931 -2.16017,0.71987 -1.20009,0.47992 -1.44012,0.71987 -1.92014,1.19978 -1.68013,0.95983 -2.64021,1.91966 -8.88069,8.63846 -2.6402,1.91966 -3.12025,1.91965 -29.7623,16.07714 -3.36027,-5.99893 -20.88161,10.55811 -3.12025,-2.39957 -1.44011,-4.07927 -1.68013,-1.43975 -2.40019,-0.23995 -13.92108,1.43974 -21.12163,2.39957 -3.36026,0.95983 0,0.71987 -7.44058,0.71987 -0.24002,0.95983 -12.24095,0.95983 0,0.95983 -67.92527,5.0391 -1.92015,-10.31816 -6.72052,-31.43439 -6.72052,0.47992 -5.04039,0 -3.12024,0 -4.56036,-0.23996 -3.8403,-0.47992 -2.40018,-0.23995 -5.28041,-0.71987 -13.44104,-2.39958 -1.68013,-3.59935 -13.68107,-31.43439 -14.16109,-32.63418 -12.00094,-27.11516 31.92248,-2.63953 2.88022,-0.47991 4.80038,0.23995 1.92015,0 1.68013,-0.23995 3.60028,-0.47992 4.08031,0 3.8403,-0.23996 3.36026,-0.47991 5.28041,-0.47992 1.20009,-0.23995 5.28041,-0.71987 7.92062,-1.19979 24.00186,-4.07927 7.44058,-1.19979 10.3208,-1.43974 14.88115,-2.15962 17.28134,-2.39957 6.4805,-0.71987 17.52136,-1.6797 34.32267,-3.11944 49.44383,-4.79915 7.92062,-0.95982 6.24048,-0.95983 11.52089,-1.19979 25.44198,-2.15961 3.12024,-0.23996 20.40158,-2.63953 0.24002,0 1.44011,3.11944 12.00093,23.03589 3.60028,5.75897 1.68013,2.63953 2.40019,2.63953 9.60075,6.47885 5.04039,3.83931 4.08031,2.63953 4.32034,4.07927 7.92061,7.91859 12.24095,10.31816 11.5209,10.0782 4.32033,3.59936 3.36026,4.07927 1.44011,2.87949 -0.96007,5.0391 -1.44011,4.31923 -0.48004,0.95982 -1.68013,2.39958 -11.28088,-1.19979 -2.6402,1.43974 -2.16017,2.15962 0.24002,0.23996 0.24002,0.23995 5.28041,8.15855 -3.12024,1.43974 3.84029,6.95876 3.8403,4.55918 0.96008,0.47992 5.52043,3.83931 27.84216,17.75683 2.88022,2.15962 2.6402,2.15961 11.28088,13.19765 10.56082,13.4376 z"
       id="Knightsbridge and Belgravia"
       style="fill:#ffd5d5;fill-opacity:1;fill-rule:evenodd;stroke:#000000;stroke-width:0.78994691;stroke-linecap:round;stroke-linejoin:round;stroke-miterlimit:4;stroke-opacity:1;stroke-dasharray:none"
       inkscape:connector-curvature="0" />
    <path
       d="m 362.66813,450.15967 -6.96054,0.23996 -13.20102,0.71987 -13.68106,0.71987 -8.88069,0.95983 -4.80037,0.71987 -9.60075,-21.8361 -7.44057,1.19978 -4.56036,-0.71987 -3.60028,-10.79807 1.44011,0 11.04086,-0.95983 0.24002,0 21.84169,-2.63953 -0.24001,-2.39957 -5.52043,-16.55705 -2.16017,-7.43867 39.60307,-4.55919 2.88023,-0.95983 8.40065,-2.63952 19.68152,-5.27906 18.24142,-4.79915 22.56175,-6.23888 13.20102,9.11837 -10.80083,5.99893 23.2818,16.31709 30.9624,21.8361 9.60075,6.23889 4.08031,0.47991 -1.20009,7.43867 -14.88115,2.15962 -10.3208,1.43974 -7.44058,1.19979 -24.00186,4.07927 -7.92062,1.19979 -5.28041,0.71987 -1.20009,0.23995 -5.28041,0.47992 -3.36026,0.47991 -3.8403,0.23996 -4.08031,0 -3.60028,0.47992 -1.68013,0.23995 -1.92015,0 -4.80038,-0.23995 -2.88022,0.47991 -31.92248,2.63953 z"
       id="Lancaster Gate"
       style="fill:#ffd5d5;fill-opacity:1;fill-rule:evenodd;stroke:#000000;stroke-width:0.78994691;stroke-linecap:round;stroke-linejoin:round;stroke-miterlimit:4;stroke-opacity:1;stroke-dasharray:none"
       inkscape:connector-curvature="0" />
    <path
       d="m 335.78605,283.38943 4.80037,-3.83932 1.44011,0.47992 4.32034,-3.59936 3.8403,1.6797 2.16016,-0.47991 14.64114,-5.27906 0.72006,0 3.36026,-1.19979 24.00186,-11.51794 5.04039,-2.15962 6.24048,-1.19978 0.24002,-0.23996 3.12024,-0.95983 2.64021,1.19979 4.32033,-1.91966 0.24002,-0.23996 -5.52043,-4.79914 4.80038,-2.63953 1.44011,1.19979 3.8403,-1.91966 4.80037,3.11944 9.60074,-4.79914 18.0014,13.91751 3.36026,2.63953 2.88022,2.39958 4.56036,4.07927 13.92108,12.71773 6.00046,4.31923 3.36026,2.39957 7.44058,4.55919 17.76138,12.47777 20.16156,13.67756 6.72052,4.31923 2.64021,2.15961 1.44011,0.71987 2.16017,1.43975 0.72005,0.71987 1.68013,1.43974 7.20056,5.99893 7.44058,5.51902 -0.96007,0 -1.44012,0 -1.20009,-0.23996 -4.08032,0 -32.16249,-0.23996 -64.80503,-1.43974 -6.24048,0.23996 -3.60028,-2.87949 -8.40065,-5.99893 -2.16017,-1.19979 -1.44011,-0.71987 -5.52043,-0.71987 -2.16017,0 -1.44011,-0.23996 -2.40019,0 -8.40065,0.47992 -2.16016,-0.23996 -0.96008,0 -1.20009,-0.23996 -6.24049,-1.6797 -6.96054,-2.15961 -35.04272,-11.51795 3.60028,-3.59935 6.48051,-5.51902 -38.643,-18.4767 z"
       id="Little Venice"
       style="fill:#ffd5d5;fill-opacity:1;fill-rule:evenodd;stroke:#000000;stroke-width:0.78994691;stroke-linecap:round;stroke-linejoin:round;stroke-miterlimit:4;stroke-opacity:1;stroke-dasharray:none"
       inkscape:connector-curvature="0" />
    <path
       d="m 323.06506,276.91058 -16.32126,-7.91858 -3.8403,-1.6797 -6.24049,-2.63953 -31.92247,-11.51795 0.48003,-0.71987 0,-0.47991 0.48004,-0.23996 1.2001,-1.91966 8.16063,-9.59828 15.84123,-19.43653 8.64067,-10.31816 4.32033,-5.0391 2.88023,-3.3594 2.40018,-3.83932 1.2001,-1.91966 1.68013,-2.87948 0.48003,-1.43975 0,-2.15961 0,-0.47992 -0.24002,-0.47991 -4.08031,-4.31923 -3.12024,-3.59936 0.48003,-0.95983 17.04133,-24.95554 0.72005,0.47991 1.68013,1.43975 2.16017,1.91965 2.88022,2.15962 4.80037,2.39957 6.48051,3.11944 1.92015,0.71987 1.20009,0.71988 1.44011,0.95982 1.20009,0.71988 1.2001,1.19978 1.68013,1.19979 3.36026,2.87948 6.96054,5.99893 10.3208,8.87842 14.40112,12.47777 7.20055,5.99893 24.72192,20.87628 8.88069,7.19871 2.16017,1.91966 1.92015,1.6797 1.68013,1.19979 4.32033,3.11944 -9.60074,4.79914 -4.80037,-3.11944 -3.8403,1.91966 -1.44011,-1.19979 -4.80038,2.63953 5.52043,4.79914 -0.24002,0.23996 -4.32033,1.91966 -2.64021,-1.19979 -3.12024,0.95983 -0.24002,0.23996 -6.24048,1.19978 -5.04039,2.15962 -24.00186,11.51794 -3.36026,1.19979 -0.72006,0 -14.64114,5.27906 -2.16016,0.47991 -3.8403,-1.6797 -4.32034,3.59936 -1.44011,-0.47992 -4.80037,3.83932 -3.12024,-1.6797 -3.36026,-1.6797 -6.24049,-3.11945 z"
       id="Maida Vale"
       style="fill:#ffd5d5;fill-opacity:1;fill-rule:evenodd;stroke:#000000;stroke-width:0.78994691;stroke-linecap:round;stroke-linejoin:round;stroke-miterlimit:4;stroke-opacity:1;stroke-dasharray:none"
       inkscape:connector-curvature="0" />
    <path
       d="m 724.13618,410.08682 -7.20056,-15.83717 -6.48051,-13.43761 -7.68059,-15.83717 -6.96054,-15.59722 -7.44058,-16.31709 24.4819,-4.31922 -6.72052,-13.91752 3.60028,-0.71987 48.24374,-8.3985 4.80037,-0.71988 -0.24001,-0.47991 -4.80038,-11.27799 42.00326,-7.19871 11.04086,-1.91966 12.48097,-1.91966 15.60121,-2.63953 6.96054,14.39743 3.84029,-0.71987 1.68013,0 0.72006,0 5.52043,0.71987 -0.24002,-7.43867 2.16017,-0.47991 5.52043,0.71987 0.96007,0.95983 -0.96007,5.75897 -0.24002,0.95983 0,0.47991 2.40018,0.23996 2.40019,0.23996 2.16017,-0.23996 16.8013,13.91752 10.80084,8.63846 7.44058,6.23888 7.20055,5.99893 -2.16016,0.71987 -10.3208,1.91966 -1.68013,0.47991 -37.20289,6.47885 -38.88302,6.7188 12.48097,28.07499 2.16017,4.55919 1.44011,2.63953 4.80037,3.59935 -25.92201,4.55919 1.2001,2.63953 1.68013,2.87948 4.56035,4.31923 -4.56035,0.47992 -17.28135,2.15961 -2.88022,0.47992 -2.16017,0.23995 -11.28087,0.95983 -7.44058,0.95983 -25.44197,2.15962 -1.68013,0.23995 -1.2001,0.47992 -1.20009,0 -2.16017,0.23995 -2.88022,0 -17.52136,1.91966 -4.32033,0.23996 z"
       id="Marylebone High Street"
       style="fill:#ffd5d5;fill-opacity:1;fill-rule:evenodd;stroke:#000000;stroke-width:0.78994691;stroke-linecap:round;stroke-linejoin:round;stroke-miterlimit:4;stroke-opacity:1;stroke-dasharray:none"
       inkscape:connector-curvature="0" />
    <path
       d="m 191.53486,193.40549 2.88022,7.43867 2.64021,5.27906 2.88022,5.27906 2.88022,5.99892 2.16017,5.03911 1.68013,5.51901 1.92015,5.75897 2.16017,8.63846 -20.88162,-4.31923 -3.12024,-0.47991 0.48003,2.15961 -0.72005,3.83932 -0.96008,5.75897 -0.72005,4.07927 -0.96008,4.31923 -0.96007,6.23889 -1.68013,8.87841 -0.72006,4.31923 -3.12024,-1.6797 -2.88022,-1.6797 -2.40019,-1.43974 -1.20009,-0.95983 -1.68013,-0.71987 -2.16017,-0.95983 -2.88022,-0.95983 -2.16017,-0.47991 -1.92015,-0.23996 -2.16017,-0.47992 -6.00046,-0.47991 -7.6806,-0.71987 -0.24002,0.71987 -0.24002,1.19979 -0.24002,0.23995 -0.24001,0 -2.88023,-0.23995 -2.6402,-0.23996 -2.64021,-0.23996 -1.92015,-0.23996 -6.72052,-1.19978 -4.32033,-0.71987 -4.08032,-0.95983 -4.80037,-0.71987 -3.12024,-0.47992 -11.04086,-0.71987 -7.92061,-0.71987 -8.40066,-0.47991 -6.96054,-0.47992 -5.04039,0.23996 -9.60074,0.95983 -5.28041,0.47991 -5.52043,0.23996 -1.20009,-2.15962 -1.92015,-3.83931 -0.48004,-1.6797 -0.48004,-0.95983 0,-0.95983 0.24002,-0.95983 0.24002,-0.23995 0.72006,-1.6797 -2.40019,-0.95983 -0.72006,-10.79808 0.24002,-2.15961 0.24002,-2.15962 1.2001,-3.3594 0.72005,-1.91965 0.48004,-0.23996 1.68013,-0.23996 1.44011,-0.23996 0.96007,-0.71987 1.2001,-0.23995 0.72005,-0.47992 0.48004,-0.47991 0.48004,-0.47992 0.48004,-0.71987 0.48003,-1.19978 0.48004,-0.95983 0,-0.95983 0,-0.71987 -0.72006,-1.91966 -1.44011,-4.55919 -0.48004,-1.19978 -0.24001,-1.19979 -0.24002,-0.71987 0.24002,-0.47991 0.24001,-0.23996 0.24002,-0.23996 0.48004,-0.23996 0.72006,-0.23995 5.76044,-1.6797 5.76045,-0.71988 1.44011,-0.23995 2.64021,-0.47992 2.16016,-0.47991 4.08032,-0.71987 2.40019,-0.23996 2.6402,0 1.92015,-0.23996 4.56035,0 5.76045,-0.47991 3.8403,-0.71987 3.8403,-0.47992 2.40018,-0.71987 7.44058,-2.15961 0.96008,-0.47992 4.80037,-1.43974 3.8403,-0.95983 4.32033,-1.19979 3.12024,-0.71987 8.40065,-1.6797 3.36027,-0.47991 3.36026,-0.23996 2.6402,0 3.60028,0 2.16017,-0.23996 3.8403,-0.23995 4.56035,-0.47992 3.8403,-0.23995 2.40018,0 7.92062,0 6.24048,0.47991 5.28041,0.23996 3.60028,0 2.16017,0 z"
       id="Queen's Park"
       style="fill:#ffd5d5;fill-opacity:1;fill-rule:evenodd;stroke:#000000;stroke-width:0.78994691;stroke-linecap:round;stroke-linejoin:round;stroke-miterlimit:4;stroke-opacity:1;stroke-dasharray:none"
       inkscape:connector-curvature="0" />
    <path
       d="m 706.13478,314.82382 -10.3208,-23.5158 -5.28041,-2.39958 -7.92062,-4.07927 -9.1207,-5.0391 -9.84077,-5.0391 -19.92154,3.83932 -5.52043,0.95982 -4.80037,0.95983 -1.44011,-3.3594 -3.8403,-4.79914 -1.44011,-1.6797 -13.68107,-11.7579 -17.28134,-13.91752 -3.12024,3.11944 -1.92015,1.6797 -1.20009,1.43975 -3.8403,3.11944 -3.12024,1.91966 -4.32033,2.87948 -3.8403,1.91966 -5.76045,1.91966 -1.44011,0.47991 -3.8403,0.95983 -3.60028,0.71987 -3.36026,0.47992 -1.68013,0 -1.20009,0 -1.68013,-0.23996 -0.72006,0 -1.44011,0.23996 -24.00186,3.59936 -2.40019,0.71987 -1.44011,0.47991 -2.16017,0.71987 -3.60028,1.91966 -2.16016,0.95983 -25.92202,12.71773 -3.36026,-2.39957 -6.00046,-4.31923 -13.92108,-12.71773 -4.56036,-4.07927 -2.88022,-2.39958 -3.36026,-2.63953 -18.0014,-13.91751 20.40159,-8.87842 33.84262,-16.31709 9.60075,-4.07927 2.40018,-1.43974 2.16017,-1.6797 2.40019,-2.15962 4.32033,-5.51901 3.36026,-3.3594 2.40019,-2.15962 3.36026,-2.39957 3.60028,-2.87948 4.08031,-2.39958 0.96008,-0.47991 3.12024,-1.6797 5.04039,-2.39957 4.80037,-2.15962 34.08265,-15.59721 3.8403,3.3594 6.00046,5.0391 9.60075,-4.55919 14.1611,-6.47884 3.12024,-1.19979 2.88022,-1.43974 1.44011,-0.47992 5.52043,-2.15961 13.20103,-5.0391 2.16016,-0.95983 2.40019,-1.19979 16.8013,-5.0391 16.08125,-4.79914 11.76091,10.31816 9.12071,-1.6797 12.00093,-2.63953 19.44151,-4.07927 4.32033,-0.95983 2.88023,-0.71987 2.6402,-0.47992 2.64021,-0.47991 3.8403,-0.47992 2.6402,-0.23995 2.88022,-0.23996 5.76045,-0.47991 7.6806,-0.47992 14.16109,32.63418 6.72053,14.87734 11.04085,23.75576 30.72239,69.82754 -12.48097,1.91966 -11.04086,1.91966 -42.00326,7.19871 4.80038,11.27799 0.24001,0.47991 -4.80037,0.71988 -48.24374,8.3985 -3.60028,0.71987 z"
       id="Regent's Park"
       style="fill:#ffd5d5;fill-opacity:1;fill-rule:evenodd;stroke:#000000;stroke-width:0.78994691;stroke-linecap:round;stroke-linejoin:round;stroke-miterlimit:4;stroke-opacity:1;stroke-dasharray:none"
       inkscape:connector-curvature="0" />
    <path
       d="m 1227.2152,454.71885 -6.7205,0.47992 -7.4406,0.71987 -13.441,1.91966 -7.6806,1.19978 -4.3204,0.95983 -3.8403,0.71987 -2.8802,0.71988 -2.8802,0.71987 -5.7605,1.6797 -6.4805,2.63953 -6.2404,2.39957 -4.0804,1.19978 -2.8802,1.6797 -3.1202,1.91966 -4.3204,3.3594 -5.7604,4.31923 -4.8004,4.07927 -3.6003,4.31923 -5.5204,6.23889 -0.9601,1.19979 -1.4401,1.43974 -1.4401,2.39957 -1.2001,3.3594 -1.6801,4.07927 -0.48,1.91966 -1.2001,5.51902 -0.7201,4.55918 -0.7201,2.87949 -0.96,5.75897 -3.8403,21.8361 -3.6003,20.63632 -0.7201,5.0391 -1.2001,8.3985 -0.96,6.23889 -0.7201,6.47884 0,6.95876 -0.48,3.3594 -0.7201,3.59936 -2.1601,9.83824 -0.9601,3.11945 -0.4801,2.15961 -21.1216,-1.91965 -3.1202,0 -7.6806,-0.71988 -6.9606,-0.47991 -6.9605,-0.23996 -4.5604,-0.23996 -4.8003,-0.23995 -3.6003,0.47991 -2.6402,0 -5.2804,-0.23996 -1.4401,0 -7.6806,-0.23995 -27.60218,-0.23996 -3.12025,-0.23996 -1.20009,4.07928 -9.84076,8.63845 -0.96008,0.95983 -13.92108,-5.75897 4.32034,-4.31923 -3.12024,-5.99893 -8.64067,-10.31816 1.20009,-0.95983 3.12024,-1.19978 -9.36072,-2.39957 0.48003,-11.99786 -26.40205,4.07927 -17.52136,2.63953 -24.72191,3.83931 -4.08032,0.23996 -4.32033,-0.23996 -2.40019,0 -24.96194,-1.6797 -2.40018,-0.47991 -11.76092,-4.55919 -2.40018,-0.71987 -10.56082,-13.4376 -11.28088,-13.19765 -2.6402,-2.15961 -2.88022,-2.15962 -27.84216,-17.75683 -5.52043,-3.83931 0.72005,0.23996 17.04133,-5.99893 0.72005,-0.23996 0.72006,-0.47992 0.72005,-0.47991 0.48004,-0.71987 0.24002,-0.71987 0.24002,-0.47992 0,-6.47884 15.12117,-7.43867 1.68013,-0.71988 1.92015,-0.71987 1.44011,-0.71987 1.92015,-0.95983 2.16017,-1.19978 3.8403,-2.39957 6.00046,-3.35941 3.8403,-1.91965 6.24048,-2.87949 2.40019,-1.19978 7.20056,-3.59936 6.24048,-3.59936 23.04179,-11.27799 11.04086,-5.75897 3.12024,-1.43974 2.40018,-0.95983 12.24095,-4.55919 7.44058,-2.63953 2.16017,-0.95983 48.24374,-14.87734 -0.48004,-1.43974 1.68013,-1.6797 3.12025,-2.15962 3.12024,-4.07927 4.80037,-4.55919 4.80037,-4.55918 5.52043,-2.87949 3.60028,-1.6797 5.76045,-2.63953 8.1606,-3.11944 2.1602,-0.71987 11.0408,-4.31923 3.3603,-1.43975 4.3204,-2.39957 2.4001,-2.39957 1.2001,-0.95983 1.2001,-0.95983 1.4401,0.47992 5.7605,3.11944 0.9601,0.47991 3.3602,2.39958 3.1203,1.6797 1.2001,0.71987 1.6801,0 1.2001,-0.23996 0.72,0 1.2001,-0.47991 1.4401,-1.6797 1.2001,-0.95983 0.9601,-0.71987 2.1602,-1.43975 5.2804,-2.63953 10.5608,-4.55918 8.6407,-4.31923 6.0004,-3.3594 4.3204,-2.87949 2.4002,-0.95983 5.5204,-3.83931 8.8807,5.75897 2.8802,-2.63953 6.0005,0.71987 11.0408,2.15962 9.6008,1.19978 1.9201,-0.47991 5.2804,-1.43974 1.6802,-0.47992 0.48,-1.43974 0.48,-1.43974 2.4002,-0.47992 8.8807,-2.39957 3.8403,-1.6797 29.0423,-7.43867 0.24,0.47991 9.3607,13.19765 17.5214,-3.59936 -0.2401,-0.95983 7.2006,-0.95983 0.24,-0.23996 0.7201,0 0.48,0.47992 0.24,0.71987 1.6802,4.79914 2.8802,9.35833 0.48,1.6797 -2.6402,0.23996 -7.2005,1.19979 1.2,2.39957 1.4402,3.11944 -6.7206,1.91966 1.4402,1.6797 -1.9202,0.71987 0.24,0.23996 -0.72,0.47991 2.4002,2.87949 1.6801,1.91966 -1.4401,0.23995 0.24,0.47992 3.1202,3.3594 1.4401,-0.23996 0.4801,0.47992 1.6801,2.39957 0.4801,1.19978 -0.2401,2.15962 -0.24,1.43974 -0.24,4.55919 0.24,1.6797 1.2001,11.27798 z"
       id="St James's"
       style="fill:#ffd5d5;fill-opacity:1;fill-rule:evenodd;stroke:#000000;stroke-width:0.78994691;stroke-linecap:round;stroke-linejoin:round;stroke-miterlimit:4;stroke-opacity:1;stroke-dasharray:none"
       inkscape:connector-curvature="0" />
    <path
       d="m 925.99184,747.70657 -0.24002,-11.03803 0,-3.3594 8.64067,-1.43974 -12.72099,-32.87414 0.72006,-0.23995 -0.72006,-1.19979 -1.20009,-0.95983 -1.68013,-0.71987 -4.80038,-2.15961 -7.92061,-3.83932 7.44058,-6.95876 18.72145,-17.51687 -3.60028,-3.11944 -12.24095,-12.71774 9.12071,-3.11944 0.96007,0.47992 16.80131,8.15854 18.24141,8.63846 12.24095,5.51901 8.40065,4.07928 10.80084,5.75897 1.44011,0.71987 17.76136,8.63846 13.6811,6.23888 3.3602,1.19979 3.8403,1.43974 1.6802,0.95983 3.8403,1.6797 11.5209,4.55919 -1.2001,0.95983 -1.6802,1.43974 -1.6801,1.19979 -2.4002,1.6797 -1.6801,1.43974 -3.3603,2.87949 -2.4002,1.91965 -5.0403,3.59936 -3.1203,2.39957 -1.9201,1.43975 -2.1602,0.95982 -0.48,0.23996 -0.4801,0.23996 -2.1601,0.95983 -2.1602,0.71987 -0.24,-0.23996 -4.3204,1.43974 -3.8403,1.19979 -18.00136,6.95876 -1.2001,0.23996 -2.6402,0.71987 -1.68013,0.71987 -1.20009,0.47991 -1.92015,0.47992 -23.52183,4.31923 -17.28134,3.11944 -5.28041,0.71987 -2.6402,0.47992 -4.80038,0.47991 -3.60027,0 z"
       id="Tachbrook"
       style="fill:#ffd5d5;fill-opacity:1;fill-rule:evenodd;stroke:#000000;stroke-width:0.78994691;stroke-linecap:round;stroke-linejoin:round;stroke-miterlimit:4;stroke-opacity:1;stroke-dasharray:none"
       inkscape:connector-curvature="0" />
    <path
       d="m 1050.0815,704.51428 -11.5209,-4.55919 -3.8403,-1.6797 -1.6802,-0.95983 -3.8403,-1.43974 -3.3602,-1.19979 -13.6811,-6.23888 -17.76136,-8.63846 -1.44011,-0.71987 -10.80084,-5.75897 -8.40065,-4.07928 -12.24095,-5.51901 -18.24141,-8.63846 -16.80131,-8.15854 -0.96007,-0.47992 -13.68106,-6.95876 -14.64114,-7.19871 -1.44011,-0.71987 -0.72006,-0.47992 -1.20009,-0.71987 -0.72006,-0.95983 -1.44011,-1.43974 -6.72052,-7.19872 -1.92015,-2.63953 -0.96007,-0.95982 -0.96008,-0.95983 -0.72005,-0.95983 -0.48004,-0.71987 -5.04039,-10.79808 2.40019,0 4.32033,0.23996 4.08032,-0.23996 24.72191,-3.83931 17.52136,-2.63953 26.40205,-4.07927 -0.48003,11.99786 9.36072,2.39957 -3.12024,1.19978 -1.20009,0.95983 8.64067,10.31816 3.12024,5.99893 -4.32034,4.31923 13.92108,5.75897 0.96008,-0.95983 9.84076,-8.63845 1.20009,-4.07928 3.12025,0.23996 27.60218,0.23996 7.6806,0.23995 1.4401,0 5.2804,0.23996 2.6402,0 3.6003,-0.47991 4.8003,0.23995 4.5604,0.23996 6.9605,0.23996 6.9606,0.47991 7.6806,0.71988 3.1202,0 21.1216,1.91965 -0.72,3.3594 -0.48,1.91966 -0.9601,4.31923 -0.7201,2.15961 -1.2001,2.63953 -0.72,1.6797 -1.4401,2.87949 -0.9601,1.91966 -0.7201,0.95983 -0.72,1.19978 -1.6802,1.43974 -0.72,1.43975 -0.9601,1.6797 -0.72,1.91966 0,1.91965 0,2.63953 0,1.43975 -0.2401,0.95982 -0.72,1.19979 -1.6801,2.63953 -4.3204,5.99893 -1.4401,1.91966 -1.6801,1.91965 -2.1602,2.39957 -5.0404,5.75898 -8.8807,9.35833 -4.0803,4.55918 -1.6801,1.6797 -4.0803,3.83932 z"
       id="Vincent Square"
       style="fill:#ffd5d5;fill-opacity:1;fill-rule:evenodd;stroke:#000000;stroke-width:0.78994691;stroke-linecap:round;stroke-linejoin:round;stroke-miterlimit:4;stroke-opacity:1;stroke-dasharray:none"
       inkscape:connector-curvature="0" />
    <path
       d="m 874.86787,603.73226 5.04039,10.79808 0.48004,0.71987 0.72005,0.95983 0.96008,0.95983 0.96007,0.95982 1.92015,2.63953 6.72052,7.19872 1.44011,1.43974 0.72006,0.95983 1.20009,0.71987 0.72006,0.47992 1.44011,0.71987 14.64114,7.19871 13.68106,6.95876 -9.12071,3.11944 12.24095,12.71774 3.60028,3.11944 -18.72145,17.51687 -7.44058,6.95876 7.92061,3.83932 4.80038,2.15961 1.68013,0.71987 1.20009,0.95983 0.72006,1.19979 -0.72006,0.23995 -7.44058,0.95983 -14.1611,1.91966 -9.1207,1.19979 -24.24188,3.11944 -10.08079,-5.27906 -26.64206,-12.47777 -3.36026,-1.6797 -3.12025,-2.39957 -5.28041,-2.63953 -2.16016,-1.19979 -1.2001,-0.95983 -0.48003,-1.6797 -1.2001,0 -2.40018,-0.47991 -5.28041,-2.39957 -11.76091,-5.51902 5.04039,-4.31923 4.56035,-3.83931 5.28041,-4.55919 6.72052,-7.67863 -2.40018,-0.47991 -4.08032,-1.19979 -15.84123,-4.79914 -5.28041,-2.15962 19.68153,-15.35726 3.60028,-3.59936 10.3208,-10.55811 12.48097,-12.23782 0.24001,-1.19978 -0.72005,-1.19979 2.40018,0.71987 11.76092,4.55919 2.40018,0.47991 24.96194,1.6797 z"
       id="Warwick"
       style="fill:#ffd5d5;fill-opacity:1;fill-rule:evenodd;stroke:#000000;stroke-width:0.78994691;stroke-linecap:round;stroke-linejoin:round;stroke-miterlimit:4;stroke-opacity:1;stroke-dasharray:none"
       inkscape:connector-curvature="0" />
    <path
       d="m 1013.3586,379.13234 -0.9601,3.11945 0,1.19978 0.2401,1.43975 6.7205,16.55704 1.9201,4.07927 3.6003,7.19872 2.6402,0.23996 1.4401,0.23995 -1.2001,0.95983 -1.2001,0.95983 -2.4001,2.39957 -4.3204,2.39957 -3.3603,1.43975 -11.0408,4.31923 -2.1602,0.71987 -8.1606,3.11944 -5.76045,2.63953 -3.60028,1.6797 -5.52043,2.87949 -4.80037,4.55918 -4.80037,4.55919 -3.12024,4.07927 -3.12025,2.15962 -1.68013,1.6797 0.48004,1.43974 -48.24374,14.87734 -2.16017,0.95983 -7.44058,2.63953 -12.24095,4.55919 -2.40018,0.95983 -3.12024,1.43974 -11.04086,5.75897 -23.04179,11.27799 -6.24048,3.59936 -7.20056,3.59936 -2.40019,1.19978 -6.24048,2.87949 -3.8403,1.91965 -6.00046,3.35941 -3.8403,2.39957 -2.16017,1.19978 -1.92015,0.95983 -1.44011,0.71987 -1.92015,0.71987 -1.68013,0.71988 -15.12117,7.43867 0,6.47884 -0.24002,0.47992 -0.24002,0.71987 -0.48004,0.71987 -0.72005,0.47991 -0.72006,0.47992 -0.72005,0.23996 -17.04133,5.99893 -0.72005,-0.23996 -0.96008,-0.47992 -3.8403,-4.55918 -3.84029,-6.95876 3.12024,-1.43974 -5.28041,-8.15855 -0.24002,-0.23995 -0.24002,-0.23996 2.16017,-2.15962 2.6402,-1.43974 11.28088,1.19979 1.68013,-2.39958 0.48004,-0.95982 1.44011,-4.31923 0.96007,-5.0391 -1.44011,-2.87949 -3.36026,-4.07927 -4.32033,-3.59936 -11.5209,-10.0782 -12.24095,-10.31816 -7.92061,-7.91859 -4.32034,-4.07927 -4.08031,-2.63953 -5.04039,-3.83931 -9.60075,-6.47885 -2.40019,-2.63953 -1.68013,-2.63953 -3.60028,-5.75897 -12.00093,-23.03589 -1.44011,-3.11944 7.6806,-0.95983 17.28134,-2.15961 2.16017,-0.23996 4.32033,-0.23996 17.52136,-1.91966 2.88022,0 2.16017,-0.23995 1.20009,0 1.2001,-0.47992 1.68013,-0.23995 25.44197,-2.15962 7.44058,-0.95983 11.28087,-0.95983 2.16017,-0.23995 2.88022,-0.47992 17.28135,-2.15961 4.56035,-0.47992 -4.56035,-4.31923 -1.68013,-2.87948 -1.2001,-2.63953 25.92201,-4.55919 -4.80037,-3.59935 -1.44011,-2.63953 -2.16017,-4.55919 -12.48097,-28.07499 38.88302,-6.7188 37.20289,-6.47885 1.68013,-0.47991 10.3208,-1.91966 2.16016,-0.71987 4.80038,4.07927 4.56035,3.3594 0.96007,0.71988 0.48004,0.47991 0.48004,0.47991 1.68013,2.15962 11.28087,10.55811 7.92062,-3.11944 5.28041,5.0391 6.72052,-2.63953 10.3208,10.31816 -1.44011,0.95983 4.56035,4.31923 0.72006,0.23996 0.48004,0 0.24001,-0.23996 0.48004,0 0.48004,-0.47991 2.6402,-1.43975 6.96054,4.07927 5.04039,2.39958 0.96008,5.0391 10.08078,-2.63953 4.80035,-0.71987 0.4801,-0.23996 0.48,0 2.8802,-0.71987 4.5604,5.51901 0.72,1.19979 -0.24,0.47991 z"
       id="West End"
       style="fill:#ffd5d5;fill-opacity:1;fill-rule:evenodd;stroke:#000000;stroke-width:0.78994691;stroke-linecap:round;stroke-linejoin:round;stroke-miterlimit:4;stroke-opacity:1;stroke-dasharray:none"
       inkscape:connector-curvature="0" />
    <path
       d="m 395.31067,344.33855 -10.80084,-0.23995 -31.20242,-0.23996 -2.64021,-0.23996 -3.12024,0 -7.68059,0 -6.00047,-0.47991 -7.6806,-0.47992 -7.68059,-0.95983 -8.40065,-1.43974 -9.84077,-2.15961 -7.92061,-1.91966 -11.52089,-3.11945 -0.96008,0.95983 3.8403,4.55919 0,5.75897 -0.48004,1.19979 -1.20009,1.19978 -0.48004,0.47992 -2.6402,-0.23996 -15.12118,3.3594 -13.92108,2.87949 9.84077,16.797 -3.60028,0.47991 -6.48051,0.95983 -12.24095,1.91966 -9.84076,1.19979 -0.48004,0.23995 -9.1207,-12.95768 -8.40065,2.15961 -10.08079,-11.99786 -6.72052,-6.95876 -2.6402,-3.3594 -0.72006,-1.19978 -0.48004,-0.71987 -0.48003,-1.43975 -0.72006,-2.15961 -0.48004,-0.47992 -1.44011,-1.6797 -1.44011,-1.43974 -0.48004,-0.47991 0.48004,-0.23996 2.40019,-0.71987 4.56035,-1.43975 4.80037,-0.71987 5.04039,0 5.28041,0.23996 2.40019,0.23996 3.36026,0.23995 5.52043,0 0,1.43975 1.44011,0 0,-0.95983 -5.52043,-7.67863 -4.08031,-5.27906 -0.48004,-0.47991 0,-0.71987 -0.24002,-3.59936 -0.96008,-2.87949 0,-1.43974 0.48004,0 0.48004,0 -0.48004,-2.39957 -0.72005,-1.19979 -0.24002,-0.71987 -1.2001,-2.15962 -0.48003,-0.95982 0.24002,-0.95983 0.24001,-1.43975 0.24002,-1.91965 0.96008,-5.75898 2.16017,1.19979 5.76044,1.91966 2.64021,0.95983 1.44011,0.47991 1.92015,0.47991 2.16017,0.23996 1.92014,0.23996 5.28041,0.71987 27.60214,4.31923 19.92155,3.11944 1.68013,0.23996 17.28134,-14.39743 2.16017,-1.91966 13.92108,-6.23888 5.04039,-2.39958 4.80037,-2.63953 6.24049,3.11945 3.36026,1.6797 3.12024,1.6797 38.643,18.4767 -6.48051,5.51902 -3.60028,3.59935 35.04272,11.51795 6.96054,2.15961 6.24049,1.6797 1.20009,0.23996 0.96008,0 2.16016,0.23996 8.40065,-0.47992 2.40019,0 1.44011,0.23996 2.16017,0 5.52043,0.71987 1.44011,0.71987 2.16017,1.19979 8.40065,5.99893 3.60028,2.87949 -6.00047,0.23995 -3.12024,0.23996 -24.24188,3.3594 -12.48097,1.91966 -11.28087,0.47991 z"
       id="Westbourne"
       style="fill:#ffd5d5;fill-opacity:1;fill-rule:evenodd;stroke:#000000;stroke-width:0.78994691;stroke-linecap:round;stroke-linejoin:round;stroke-miterlimit:4;stroke-opacity:1;stroke-dasharray:none"
       inkscape:connector-curvature="0" />
  </g>
  <path
     style="fill:#aaeeff;fill-opacity:1;fill-rule:evenodd;stroke:#2276d5;stroke-width:0.99921256;stroke-linecap:round;stroke-linejoin:round;stroke-miterlimit:4;stroke-opacity:1;stroke-dasharray:none"
     d="m 1222.6562,567.04266 -0.25,1.125 -3.8437,0.40601 -3.8437,0.375 -0.4688,-1.15601 -4.5625,0.78101 -4.7813,0.75 -9.625,1.937 -9.3437,2.28199 -2.4063,0.78101 -0.4687,0 -5.0625,1.531 -4.0625,1.531 -0.5,0.407 -7.9063,3.062 0.4688,1.531 -9.125,4.594 -0.9375,-0.75 -1.4375,0.75 -3.625,1.938 -1.6562,1.156 0,-0.406 -0.9688,0.406 -0.9688,0.375 0,0.781 -3.5937,2.688 -0.4687,-0.407 -4.8126,3.844 -7.1874,6.531 -2.4063,3.063 1.1875,1.156 -3.3438,4.219 -1.6874,-0.75 -3.375,5.375 -1.9063,3.437 -4.5625,8.063 1.4375,1.156 -0.7187,1.531 -0.7188,-0.375 -0.7188,1.532 -0.25,0.375 -2.1562,5 0.7188,0.375 -0.4688,1.562 -1.9375,3.438 -1.6563,3.062 -0.5,-0.375 -0.2187,1.156 -2.9063,6.907 -0.9374,0 -1.4376,4.218 -1.2187,4.625 -1.1875,4.969 -1.9375,8.844 -1.1875,7.687 -1.4375,5.75 1.4375,0.375 -0.9688,1.532 -4.0624,26.125 -0.7188,11.125 -1.6875,0.375 -0.4687,11.531 1.4374,0.781 -0.5,4.594 -0.2187,4.219 -1.6875,0.406 0,1.125 -0.25,1.156 1.4375,0.781 -5.2813,42.625 -4.3124,35.688 -0.25,1.531 -0.2188,4.625 0,3.063 -1.2188,14.968 -0.4687,1.532 -1.4375,18.43703 -1.2188,11.906 0.9688,1.157 -0.7188,4.59304 -0.4687,2.313 -3.8437,13.812 -0.9688,3.469 -1.1875,2.281 -1.4375,3.094 -2.1875,3.844 -6.9375,14.56203 -2.1562,4.25 -2.4063,4.969 -1.2187,1.531 -0.7188,0.782 -0.7188,0.781 -2.1562,1.531 -0.7188,0.375 -2.4062,4.594 -2.375,3.469 -7.4688,12.28099 -1.1874,3.469 -0.7188,2.281 -4.5625,5 -0.7187,0 -0.4688,0 -24.25,26.12494 -1.4375,1.531 -1.4375,1.156 -2.40625,1.907 -2.65625,2.312 -2.15625,1.531 -2.625,1.532 -0.25,0 -3.34375,2.312 -9.375,3.438 -4.5625,1.531 -1.4375,0.406 -4.0625,1.906 0,0.375 -6,1.563 -0.96875,-2.313 -11.78125,3.063 0,1.937 -6.71875,1.532 -2.875,0.75 -3.125,0.406 -11.03125,1.125 -4.09375,0.406 -5.03125,0 -0.96875,0 -10.0625,-0.406 -4.8125,-0.375 -2.625,-0.75 -3.84375,-0.781 -14.875,-4.594 -6.96875,-1.938 -6.96875,-2.312 -1.4375,-0.375 -1.4375,0 -3.125,-0.375 -2.625,-0.781 -14.65625,-2.282 -6.96875,-0.781 -7.90625,-0.375 -11.03125,1.156 -5.0625,0.375 -8.15625,0.75 -0.46875,-2.281 0,-1.531 0,-1.938 0.71875,-0.375 0,-3.843 -0.96875,-0.375 -0.46875,-0.782 0,-0.375 0,-0.375 0,-3.843 -1.4375,0 0,4.218 0.71875,-0.375 -0.25,0.375 -0.96875,0.375 -1.1875,-0.375 -2.625,0 -0.96875,1.907 0.46875,0.406 0.71875,1.125 0.96875,0.406 2.15625,1.156 0.46875,1.125 0.25,0.407 0.25,1.531 0,0.375 -0.25,2.687 -0.25,0.782 -8.375,1.156 1.65625,16.5 5.28125,-0.375 6,-0.406 12.5,-0.375 5.5,-0.375 12.25,0.375 11.28125,0.781 2.875,0.375 1.4375,0.375 2.40625,1.156 3.59375,0.781 1.21875,0.375 7.90625,0.75 1.21875,0 4.78125,1.563 4.3125,1.531 9.625,2.281 7.1875,1.938 3.59375,1.156 2.40625,0.375 1.9375,0.375 3.09375,0.406 12.5,0.375 0.46875,0 4.3125,0 2.90625,-0.375 2.15625,0 3.59375,0 4.8125,-0.781 2.625,-0.781 5.28125,-1.125 17.28125,-5 23.53125,-6.906 1.90625,-0.782 1.21875,-0.75 1.65625,-1.156 2.65625,-1.156 1.1875,-0.375 18,-11.156 3.8438,-1.907 4.3124,-2.312 0.25,0.375 2.1563,-1.125 2.1563,-1.563 0.5,-0.375 0.4687,-0.375 2.1563,-1.531 1.9374,-2.312 3.0938,-3.844 5.0625,-5.75 2.4063,-3.063 3.3437,-4.62494 1.6875,-2.312 2.4062,-2.688 1.6563,-1.906 1.6875,-2.312 1.2188,-1.532 4.0624,-6.125 1.6876,-2.687 4.0937,-7.313 8.875,-14.96799 5.0313,-9.219 2.1562,-3.844 1.6875,-3.062 1.4375,-3.063 4.3125,-9.59403 1.6875,-4.25 0.7188,-1.906 0.25,-1.531 0,-2.313 0,-4.218 0,-3.063 0.7187,-3.094 0.9375,-2.687 0.75,-2.281 1.6562,-2.313 0.7188,-1.906 0.7188,-1.563 0.9687,-3.06204 1.4375,-4.594 0.7188,-2.687 1.2187,-4.219 0.7187,-3.469 0.9376,-6.906 0.5,-3.063 0.7187,-5.375 0.4687,-3.46803 0.9688,-5 2.1562,-15.719 0.7188,-5.781 0.4688,-5.375 0,-11.125 0.7187,-10.375 0.9687,-9.969 1.2188,-13.438 0.7188,-8.062 3.5937,-33.031 3.8437,-34.938 0.9376,-9.219 0.7187,-4.593 0.7187,-7.313 1.2188,-8.812 0.4688,-3.063 1.6874,-6.531 1.1876,-5.375 1.4687,-3.844 1.4375,-2.312 0.9375,-1.907 5.5313,-10 3.5937,-6.906 4.8125,-6.531 5.75,-6.906 4.3125,-5.375 3.125,-3.063 2.875,-2.687 4.0937,-1.938 6.25,-3.812 6.4688,-4.25 5.75,-2.688 2.9062,-1.125 2.875,-1.156 3.8438,-1.156 4.3125,-1.532 7.6875,-1.937 13.4375,-3.063 7.4375,-1.156 6.7188,-0.75 -1.2188,-18.062 -1.1875,0.375 0,-1.125 -2.1563,0 z m -422.9062,423.4681 0.21875,1.532 1.6875,0.781 0,0.375 -1.4375,-0.781 -0.25,0 0,1.937 1.9375,0.75 -0.25,0.406 -1.6875,-0.781 0.25,1.906 1.6875,0.782 0,0.375 -1.6875,-0.75 0.25,4.96794 0.21875,0.407 -0.21875,4.593 1.4375,0.375 0,-6.5 0.46875,-0.406 1.6875,0 0,-8.06194 -4.3125,-1.907 z"
     id="path5"
     inkscape:connector-curvature="0" />
  <path
     inkscape:connector-curvature="0"
     style="fill:none;stroke:#000000;stroke-width:0.99921256;stroke-linecap:round;stroke-linejoin:round;stroke-miterlimit:4;stroke-opacity:1;stroke-dasharray:none"
     d="m 791.59375,1025.0737 1.65625,16.5 5.28125,-0.375 6,-0.406 12.5,-0.375 5.5,-0.375 12.25,0.375 11.28125,0.781 2.875,0.375 1.4375,0.375 2.40625,1.156 3.59375,0.781 1.21875,0.375 7.90625,0.75 1.21875,0 4.78125,1.563 4.3125,1.531 9.625,2.281 7.1875,1.938 3.59375,1.156 2.40625,0.375 1.9375,0.375 3.09375,0.406 12.5,0.375 0.46875,0 4.3125,0 2.90625,-0.375 2.15625,0 3.59375,0 4.8125,-0.781 2.625,-0.781 5.28125,-1.125 17.28125,-5 23.53125,-6.906 1.90625,-0.782 1.21875,-0.75 1.65625,-1.156 2.65625,-1.156 1.1875,-0.375 18,-11.156 3.8438,-1.907 4.3124,-2.312 0.25,0.375 2.1563,-1.125 2.1563,-1.563 0.5,-0.375 0.4687,-0.375 2.1563,-1.531 1.9374,-2.312 3.0938,-3.844 5.0625,-5.75 2.4063,-3.063 3.3437,-4.62494 1.6875,-2.312 2.4062,-2.688 1.6563,-1.906 1.6875,-2.312 1.2188,-1.532 4.0624,-6.125 1.6876,-2.687 4.0937,-7.313 8.875,-14.96799 5.0313,-9.219 2.1562,-3.844 1.6875,-3.062 1.4375,-3.063 4.3125,-9.59403 1.6875,-4.25 0.7188,-1.906 0.25,-1.531 0,-2.313 0,-4.218 0,-3.063 0.7187,-3.094 0.9375,-2.687 0.75,-2.281 1.6562,-2.313 0.7188,-1.906 0.7188,-1.563 0.9687,-3.06204 1.4375,-4.594 0.7188,-2.687 1.2187,-4.219 0.7187,-3.469 0.9376,-6.906 0.5,-3.063 0.7187,-5.375 0.4687,-3.46803 0.9688,-5 2.1562,-15.719 0.7188,-5.781 0.4688,-5.375 0,-11.125 0.7187,-10.375 0.9687,-9.969 1.2188,-13.438 0.7188,-8.062 3.5937,-33.031 3.8437,-34.938 0.9376,-9.219 0.7187,-4.593 0.7187,-7.313 1.2188,-8.812 0.4688,-3.063 1.6874,-6.531 1.1876,-5.375 1.4687,-3.844 1.4375,-2.312 0.9375,-1.907 5.5313,-10 3.5937,-6.906 4.8125,-6.531 5.75,-6.90601 4.3125,-5.375 3.125,-3.063 2.875,-2.687 4.0937,-1.938 6.25,-3.812 6.4688,-4.25 5.75,-2.688 2.9062,-1.125 2.875,-1.156 3.8438,-1.156 4.3125,-1.532 7.6875,-1.937 13.4375,-3.063 7.4375,-1.156 6.7188,-0.75 -1.2188,-18.062"
     id="path5-4"
     sodipodi:nodetypes="ccccccccccccccccccccccccccccccccccccccccccccccccccccccccccccccccccccccccccccccccccccccccccccccccccccccccccccccccccccccccccccccccc" />
  <text
     xml:space="preserve"
     style="font-size:24px;font-style:normal;font-variant:normal;font-weight:normal;font-stretch:normal;text-align:center;line-height:95%;letter-spacing:0px;word-spacing:0px;text-anchor:middle;fill:#000000;fill-opacity:1;stroke:none;font-family:DejaVu Sans Condensed;-inkscape-font-specification:'DejaVu Sans Condensed,';writing-mode:lr"
     x="468.47266"
     y="138.79129"
     id="text3896"
     sodipodi:linespacing="95%"><tspan
       sodipodi:role="line"
       id="tspan3898"
       x="468.47266"
       y="138.79129">Abbey Road</tspan></text>
  <text
     xml:space="preserve"
     style="font-size:24px;font-style:normal;font-variant:normal;font-weight:normal;font-stretch:normal;text-align:center;line-height:95%;letter-spacing:0px;word-spacing:0px;text-anchor:middle;fill:#000000;fill-opacity:1;stroke:none;font-family:DejaVu Sans Condensed;-inkscape-font-specification:'DejaVu Sans Condensed,';writing-mode:lr"
     x="328.42383"
     y="455.29138"
     id="text3900"
     sodipodi:linespacing="95%"><tspan
       sodipodi:role="line"
       id="tspan3902"
       x="328.42383"
       y="455.29138">Bayswater</tspan></text>
  <text
     xml:space="preserve"
     style="font-size:20px;font-style:normal;font-variant:normal;font-weight:normal;font-stretch:normal;text-align:center;line-height:95%;letter-spacing:0px;word-spacing:0px;text-anchor:middle;fill:#000000;fill-opacity:1;stroke:none;font-family:DejaVu Sans Condensed;-inkscape-font-specification:'DejaVu Sans Condensed,';writing-mode:lr"
     x="648.73633"
     y="422.79135"
     id="text3904"
     sodipodi:linespacing="95%"><tspan
       sodipodi:role="line"
       id="tspan3906"
       x="648.73633"
       y="422.79135">Bryanston</tspan><tspan
       sodipodi:role="line"
       x="648.73633"
       y="441.79135"
       id="tspan3990">&amp; Dorset</tspan><tspan
       sodipodi:role="line"
       x="648.73633"
       y="460.79135"
       id="tspan3998">Square</tspan></text>
  <text
     xml:space="preserve"
     style="font-size:24px;font-style:normal;font-variant:normal;font-weight:normal;font-stretch:normal;text-align:center;line-height:95%;letter-spacing:0px;word-spacing:0px;text-anchor:middle;fill:#000000;fill-opacity:1;stroke:none;font-family:DejaVu Sans Condensed;-inkscape-font-specification:'DejaVu Sans Condensed,';writing-mode:lr"
     x="858.69141"
     y="1012.2913"
     id="text3908"
     sodipodi:linespacing="95%"><tspan
       sodipodi:role="line"
       id="tspan3910"
       x="858.69141"
       y="1012.2913">Churchill</tspan></text>
  <text
     xml:space="preserve"
     style="font-size:24px;font-style:normal;font-variant:normal;font-weight:normal;font-stretch:normal;text-align:center;line-height:95%;letter-spacing:0px;word-spacing:0px;text-anchor:middle;fill:#000000;fill-opacity:1;stroke:none;font-family:DejaVu Sans Condensed;-inkscape-font-specification:'DejaVu Sans Condensed,';writing-mode:lr"
     x="556.89063"
     y="324.79132"
     id="text3912"
     sodipodi:linespacing="95%"><tspan
       sodipodi:role="line"
       id="tspan3914"
       x="556.89063"
       y="324.79132">Church</tspan><tspan
       sodipodi:role="line"
       x="556.89063"
       y="347.59131"
       id="tspan3986">Street</tspan></text>
  <text
     xml:space="preserve"
     style="font-size:24px;font-style:normal;font-variant:normal;font-weight:normal;font-stretch:normal;text-align:center;line-height:95%;letter-spacing:0px;word-spacing:0px;text-anchor:middle;fill:#000000;fill-opacity:1;stroke:none;font-family:DejaVu Sans Condensed;-inkscape-font-specification:'DejaVu Sans Condensed,';writing-mode:lr"
     x="234.4707"
     y="291.29132"
     id="text3916"
     sodipodi:linespacing="95%"><tspan
       sodipodi:role="line"
       id="tspan3918"
       x="234.4707"
       y="291.29132">Harrow</tspan><tspan
       sodipodi:role="line"
       x="234.4707"
       y="314.09131"
       id="tspan3976">Road</tspan></text>
  <text
     xml:space="preserve"
     style="font-size:24px;font-style:normal;font-variant:normal;font-weight:normal;font-stretch:normal;text-align:center;line-height:95%;letter-spacing:0px;word-spacing:0px;text-anchor:middle;fill:#000000;fill-opacity:1;stroke:none;font-family:DejaVu Sans Condensed;-inkscape-font-specification:'DejaVu Sans Condensed,';writing-mode:lr"
     x="534.97461"
     y="480.29135"
     id="text3920"
     sodipodi:linespacing="95%"><tspan
       sodipodi:role="line"
       id="tspan3922"
       x="534.97461"
       y="480.29135">Hyde Park</tspan></text>
  <text
     xml:space="preserve"
     style="font-size:24px;font-style:normal;font-variant:normal;font-weight:normal;font-stretch:normal;text-align:center;line-height:95%;letter-spacing:0px;word-spacing:0px;text-anchor:middle;fill:#000000;fill-opacity:1;stroke:none;font-family:DejaVu Sans Condensed;-inkscape-font-specification:'DejaVu Sans Condensed,';writing-mode:lr"
     x="579.73627"
     y="675.43585"
     id="text3924"
     sodipodi:linespacing="95%"><tspan
       sodipodi:role="line"
       id="tspan3926"
       x="579.73627"
       y="675.43585">Knightsbridge &amp; Belgravia</tspan></text>
  <text
     xml:space="preserve"
     style="font-size:24px;font-style:normal;font-variant:normal;font-weight:normal;font-stretch:normal;text-align:center;line-height:95%;letter-spacing:0px;word-spacing:0px;text-anchor:middle;fill:#000000;fill-opacity:1;stroke:none;font-family:DejaVu Sans Condensed;-inkscape-font-specification:'DejaVu Sans Condensed,';writing-mode:lr"
     x="391.08789"
     y="527.29132"
     id="text3928"
     sodipodi:linespacing="95%"><tspan
       sodipodi:role="line"
       id="tspan3930"
       x="391.08789"
       y="527.29132">Lancaster</tspan><tspan
       sodipodi:role="line"
       x="391.08789"
       y="550.09137"
       id="tspan3980">Gate</tspan></text>
  <text
     xml:space="preserve"
     style="font-size:24px;font-style:normal;font-variant:normal;font-weight:normal;font-stretch:normal;text-align:center;line-height:95%;letter-spacing:0px;word-spacing:0px;text-anchor:middle;fill:#000000;fill-opacity:1;stroke:none;font-family:DejaVu Sans Condensed;-inkscape-font-specification:'DejaVu Sans Condensed,';writing-mode:lr"
     x="443.24414"
     y="336.29132"
     id="text3932"
     sodipodi:linespacing="95%"><tspan
       sodipodi:role="line"
       id="tspan3934"
       x="443.24414"
       y="336.29132">Little</tspan><tspan
       sodipodi:role="line"
       x="443.24414"
       y="359.09131"
       id="tspan3978">Venice</tspan></text>
  <text
     xml:space="preserve"
     style="font-size:24px;font-style:normal;font-variant:normal;font-weight:normal;font-stretch:normal;text-align:center;line-height:95%;letter-spacing:0px;word-spacing:0px;text-anchor:middle;fill:#000000;fill-opacity:1;stroke:none;font-family:DejaVu Sans Condensed;-inkscape-font-specification:'DejaVu Sans Condensed,';writing-mode:lr"
     x="345.87695"
     y="227.79129"
     id="text3936"
     sodipodi:linespacing="95%"><tspan
       sodipodi:role="line"
       id="tspan3938"
       x="345.87695"
       y="227.79129">Maida</tspan><tspan
       sodipodi:role="line"
       x="345.87695"
       y="250.59129"
       id="tspan3982">Vale</tspan></text>
  <text
     xml:space="preserve"
     style="font-size:24px;font-style:normal;font-variant:normal;font-weight:normal;font-stretch:normal;text-align:center;line-height:94.99999881%;letter-spacing:0px;word-spacing:0px;writing-mode:lr-tb;text-anchor:middle;fill:#000000;fill-opacity:1;stroke:none;font-family:DejaVu Sans Condensed;-inkscape-font-specification:'DejaVu Sans Condensed,'"
     x="795.00586"
     y="378.29135"
     id="text3940"
     sodipodi:linespacing="94.999999%"><tspan
       sodipodi:role="line"
       id="tspan3942"
       x="795.00586"
       y="378.29135">Marylebone</tspan><tspan
       sodipodi:role="line"
       x="795.00586"
       y="401.09134"
       id="tspan3988">High Street</tspan></text>
  <text
     xml:space="preserve"
     style="font-size:24px;font-style:normal;font-variant:normal;font-weight:normal;font-stretch:normal;text-align:center;line-height:94.99999881%;letter-spacing:0px;word-spacing:0px;writing-mode:lr-tb;text-anchor:middle;fill:#000000;fill-opacity:1;stroke:none;font-family:DejaVu Sans Condensed;-inkscape-font-specification:'DejaVu Sans Condensed,'"
     x="124.83961"
     y="227.4194"
     id="text3944"
     sodipodi:linespacing="94.999999%"><tspan
       sodipodi:role="line"
       id="tspan3946"
       x="124.83961"
       y="227.4194"
       style="font-size:24px;font-style:normal;font-variant:normal;font-weight:normal;font-stretch:normal;text-align:center;line-height:94.99999881%;writing-mode:lr-tb;text-anchor:middle;font-family:DejaVu Sans Condensed;-inkscape-font-specification:'DejaVu Sans Condensed,'">Queens</tspan><tspan
       sodipodi:role="line"
       x="124.83961"
       y="250.21941"
       style="font-size:24px;font-style:normal;font-variant:normal;font-weight:normal;font-stretch:normal;text-align:center;line-height:94.99999881%;writing-mode:lr-tb;text-anchor:middle;font-family:DejaVu Sans Condensed;-inkscape-font-specification:'DejaVu Sans Condensed,'"
       id="tspan3984">Park</tspan></text>
  <text
     xml:space="preserve"
     style="font-size:24px;font-style:normal;font-variant:normal;font-weight:normal;font-stretch:normal;text-align:center;line-height:95%;letter-spacing:0px;word-spacing:0px;text-anchor:middle;fill:#000000;fill-opacity:1;stroke:none;font-family:DejaVu Sans Condensed;-inkscape-font-specification:'DejaVu Sans Condensed,';writing-mode:lr"
     x="645.0011"
     y="224.71707"
     id="text3948"
     sodipodi:linespacing="95%"><tspan
       sodipodi:role="line"
       id="tspan3950"
       x="645.0011"
       y="224.71707">Regents Park</tspan></text>
  <text
     xml:space="preserve"
     style="font-size:24px;font-style:normal;font-variant:normal;font-weight:normal;font-stretch:normal;text-align:center;line-height:95%;letter-spacing:0px;word-spacing:0px;text-anchor:middle;fill:#000000;fill-opacity:1;stroke:none;font-family:DejaVu Sans Condensed;-inkscape-font-specification:'DejaVu Sans Condensed,';writing-mode:lr"
     x="986.1712"
     y="691.91632"
     id="text3952"
     sodipodi:linespacing="95%"><tspan
       sodipodi:role="line"
       id="tspan3954"
       x="986.1712"
       y="691.91632">St Jamess</tspan></text>
  <text
     xml:space="preserve"
     style="font-size:20px;font-style:normal;font-variant:normal;font-weight:normal;font-stretch:normal;text-align:center;line-height:94.99999881%;letter-spacing:0px;word-spacing:0px;writing-mode:lr-tb;text-anchor:middle;fill:#000000;fill-opacity:1;stroke:none;font-family:DejaVu Sans Condensed;-inkscape-font-specification:'DejaVu Sans Condensed,'"
     x="973.94824"
     y="984.61163"
     id="text3956"
     sodipodi:linespacing="94.999999%"><tspan
       sodipodi:role="line"
       id="tspan3958"
       x="973.94824"
       y="984.61163">Tachbrook</tspan></text>
  <text
     xml:space="preserve"
     style="font-size:24px;font-style:normal;font-variant:normal;font-weight:normal;font-stretch:normal;text-align:center;line-height:95%;letter-spacing:0px;word-spacing:0px;text-anchor:middle;fill:#000000;fill-opacity:1;stroke:none;font-family:DejaVu Sans Condensed;-inkscape-font-specification:'DejaVu Sans Condensed,';writing-mode:lr"
     x="1018.0986"
     y="900.67792"
     id="text3960"
     sodipodi:linespacing="95%"><tspan
       sodipodi:role="line"
       id="tspan3962"
       x="1018.0986"
       y="900.67792">Vincent</tspan><tspan
       sodipodi:role="line"
       x="1018.0986"
       y="923.47791"
       id="tspan4000">Square</tspan></text>
  <text
     xml:space="preserve"
     style="font-size:24px;font-style:normal;font-variant:normal;font-weight:normal;font-stretch:normal;text-align:center;line-height:95%;letter-spacing:0px;word-spacing:0px;text-anchor:middle;fill:#000000;fill-opacity:1;stroke:none;font-family:DejaVu Sans Condensed;-inkscape-font-specification:'DejaVu Sans Condensed,';writing-mode:lr"
     x="865.67462"
     y="925.53351"
     id="text3964"
     sodipodi:linespacing="95%"><tspan
       sodipodi:role="line"
       id="tspan3966"
       x="865.67462"
       y="925.53351">Warwick</tspan></text>
  <text
     xml:space="preserve"
     style="font-size:24px;font-style:normal;font-variant:normal;font-weight:normal;font-stretch:normal;text-align:center;line-height:95%;letter-spacing:0px;word-spacing:0px;text-anchor:middle;fill:#000000;fill-opacity:1;stroke:none;font-family:DejaVu Sans Condensed;-inkscape-font-specification:'DejaVu Sans Condensed,';writing-mode:lr"
     x="300.49707"
     y="382.61166"
     id="text3968"
     sodipodi:linespacing="95%"><tspan
       sodipodi:role="line"
       id="tspan3970"
       x="300.49707"
       y="382.61166">Westbourne</tspan></text>
  <text
     xml:space="preserve"
     style="font-size:24px;font-style:normal;font-variant:normal;font-weight:normal;font-stretch:normal;text-align:center;line-height:95%;letter-spacing:0px;word-spacing:0px;text-anchor:middle;fill:#000000;fill-opacity:1;stroke:none;font-family:DejaVu Sans Condensed;-inkscape-font-specification:'DejaVu Sans Condensed,';writing-mode:lr"
     x="862.90033"
     y="565.23663"
     id="text3972"
     sodipodi:linespacing="95%"><tspan
       sodipodi:role="line"
       id="tspan3974"
       x="862.90033"
       y="565.23663">West End</tspan></text>
  <text
     xml:space="preserve"
     style="font-size:40px;font-style:normal;font-variant:normal;font-weight:bold;font-stretch:normal;line-height:95%;letter-spacing:0px;word-spacing:0px;fill:#000000;fill-opacity:1;stroke:none;font-family:DejaVu Sans Condensed;-inkscape-font-specification:'DejaVu Sans Condensed, Bold';text-anchor:start;text-align:start;writing-mode:lr"
     x="51.573833"
     y="904.65973"
     id="text3992"
     sodipodi:linespacing="95%"><tspan
       sodipodi:role="line"
       id="tspan3994"
       x="51.573833"
       y="904.65973"
       style="font-style:normal;font-variant:normal;font-weight:bold;font-stretch:normal;font-family:DejaVu Sans Condensed;-inkscape-font-specification:'DejaVu Sans Condensed, Bold';font-size:40px;text-anchor:start;text-align:start;writing-mode:lr;line-height:95%">City of Westminster</tspan><tspan
       sodipodi:role="line"
       x="51.573833"
       y="942.65973"
       id="tspan3996"
       style="font-style:normal;font-variant:normal;font-weight:bold;font-stretch:normal;font-family:DejaVu Sans Condensed;-inkscape-font-specification:'DejaVu Sans Condensed, Bold';font-size:40px;text-anchor:start;text-align:start;writing-mode:lr;line-height:95%">Ward Map, 2002-present</tspan></text>
  <text
     xml:space="preserve"
     style="font-size:24px;font-style:oblique;font-variant:normal;font-weight:normal;font-stretch:normal;text-align:center;line-height:94.99999881%;letter-spacing:0px;word-spacing:0px;writing-mode:lr-tb;text-anchor:middle;fill:#2276d5;fill-opacity:1;stroke:none;font-family:DejaVu Sans Condensed;-inkscape-font-specification:'DejaVu Sans Condensed, Oblique'"
     id="text4002"
     sodipodi:linespacing="94.999999%"
     x="-729.86224"
     y="1189.7791"
     transform="matrix(0.07720412,-0.99701531,0.99701531,0.07720412,0,0)"><tspan
   style="font-size:24px;font-style:oblique;font-variant:normal;font-weight:normal;font-stretch:normal;text-align:center;line-height:94.99999881%;writing-mode:lr-tb;text-anchor:middle;font-family:DejaVu Sans Condensed;-inkscape-font-specification:'DejaVu Sans Condensed, Oblique'"
   id="tspan4004">River Thames</tspan></text>
  <path
     inkscape:connector-curvature="0"
     style="fill:none;stroke:none;stroke-width:0.99921256000000003;stroke-linecap:round;stroke-linejoin:round;stroke-miterlimit:4;stroke-opacity:1;stroke-dasharray:none"
     d="m 791.59375,1025.0737 1.65625,16.5 5.28125,-0.375 6,-0.406 12.5,-0.375 5.5,-0.375 12.25,0.375 11.28125,0.781 2.875,0.375 1.4375,0.375 2.40625,1.156 3.59375,0.781 1.21875,0.375 7.90625,0.75 1.21875,0 4.78125,1.563 4.3125,1.531 9.625,2.281 7.1875,1.938 3.59375,1.156 2.40625,0.375 1.9375,0.375 3.09375,0.406 12.5,0.375 0.46875,0 4.3125,0 2.90625,-0.375 2.15625,0 3.59375,0 4.8125,-0.781 2.625,-0.781 5.28125,-1.125 17.28125,-5 23.53125,-6.906 1.90625,-0.782 1.21875,-0.75 1.65625,-1.156 2.65625,-1.156 1.1875,-0.375 18,-11.156 3.8438,-1.907 4.3124,-2.312 0.25,0.375 2.1563,-1.125 2.1563,-1.563 0.5,-0.375 0.4687,-0.375 2.1563,-1.531 1.9374,-2.312 3.0938,-3.844 5.0625,-5.75 2.4063,-3.063 3.3437,-4.62494 1.6875,-2.312 2.4062,-2.688 1.6563,-1.906 1.6875,-2.312 1.2188,-1.532 4.0624,-6.125 1.6876,-2.687 4.0937,-7.313 8.875,-14.96799 5.0313,-9.219 2.1562,-3.844 1.6875,-3.062 1.4375,-3.063 4.3125,-9.59403 1.6875,-4.25 0.7188,-1.906 0.25,-1.531 0,-2.313 0,-4.218 0,-3.063 0.7187,-3.094 0.9375,-2.687 0.75,-2.281 1.6562,-2.313 0.7188,-1.906 0.7188,-1.563 0.9687,-3.06204 1.4375,-4.594 0.7188,-2.687 1.2187,-4.219 0.7187,-3.469 0.9376,-6.906 0.5,-3.063 0.7187,-5.375 0.4687,-3.46803 0.9688,-5 2.1562,-15.719 0.7188,-5.781 0.4688,-5.375 0,-11.125 0.7187,-10.375 0.9687,-9.969 1.2188,-13.438 0.7188,-8.062 3.5937,-33.031 3.8437,-34.938 0.9376,-9.219 0.7187,-4.593 0.7187,-7.313 1.2188,-8.812 0.4688,-3.063 1.6874,-6.531 1.1876,-5.375 1.4687,-3.844 1.4375,-2.312 0.9375,-1.907 5.5313,-10 3.5937,-6.906 4.8125,-6.531 5.75,-6.90601 4.3125,-5.375 3.125,-3.063 2.875,-2.687 4.0937,-1.938 6.25,-3.812 6.4688,-4.25 5.75,-2.688 2.9062,-1.125 2.875,-1.156 3.8438,-1.156 4.3125,-1.532 7.6875,-1.937 13.4375,-3.063 7.4375,-1.156 6.7188,-0.75 -1.2188,-18.062"
     id="path5-4-4"
     sodipodi:nodetypes="ccccccccccccccccccccccccccccccccccccccccccccccccccccccccccccccccccccccccccccccccccccccccccccccccccccccccccccccccccccccccccccccccc" />
</svg>
